<svg xmlns="http://www.w3.org/2000/svg" width="2000" height="2000" viewBox="0 0 2000 2000">
  <defs>
    <style>
      .cls-1 {
        fill: #fff;
        fill-rule: evenodd;
      }
    </style>
  </defs>
  <path id="Preenchimento_de_Cor_1" data-name="Preenchimento de Cor 1" class="cls-1" d="M148,928h54v64H147v119H73C71.618,978.124,47.037,797.594,203,835v65C178.282,889.965,149.37,904.443,148,928Zm169-31c61.42-1.069,99.084,22.037,117,64,33.611,78.72-21.29,144.09-84,156-88.351,16.78-160.618-68.2-127-152a108,108,0,0,1,62-61Zm243,0c41.232-1.036,77.592,10.024,95,33l-40,52c-25.546-19.453-74.706-23.366-83,16-12.25,58.14,55.054,56.08,83,35q20,25.995,40,52c-8.922,11.6-23.371,18.01-38,24-82.979,34-177.12-33.6-156-125,9.036-39.1,35.363-68.573,71-81Zm1141,1c29.45-.913,70.38,15.78,68,39l-18,10c-12.3-38.372-94.49-30.558-83,14,10.91,42.29,129.55,29.281,110,106-16.21,63.6-117.35,58.18-144,7q9-6.495,18-13c0.67,0.33,1.33.67,2,1,15.15,37.5,112.32,38.03,101-13-10.37-46.73-124.83-33.89-110-102,2.99-13.75,6.89-24.673,16-32C1672.84,905.478,1685.09,904.726,1701,898Zm-600,3h25q35.49,80.491,71,161h1q34.995-80.49,70-161h26q-47.49,106.49-95,213h-4Q1148.005,1007.515,1101,901Zm215,0h123v23h-99v67h86v24h-86v72h99v24H1316V901Zm158,0c51.89-1.06,97.01-2.54,119,26,27.64,35.871,9.19,88.7-30,99q30.99,42.495,62,85c-11.14.35-25.29,1.03-32-3q-27.495-39.495-55-79h-40v82h-23Q1474.505,1006.015,1474,901Zm333,0h123v23h-99v67h86v24h-86v72h99v24H1807V901ZM669,904h74c-0.893,51.189-13.952,136.88,30,145,59.35,10.96,42.813-95.523,42-145h72c1.2,105.02,8.3,180.69-71,208-19.147,6.6-51.352,8.51-73,2C663.548,1090.09,668.189,1008.21,669,904Zm422,0v64l-68,1-6,6c1.35,26.5,40.13,39.96,48,70,21.52,82.17-90.632,66.54-157,66v-65c23.222,0.21,53.229,2.86,73-2,2.868-3.98,4.46-5.09,5-12-12.19-16.8-30.368-28.6-41-46-6.438-10.534-10.045-28-6-43C952.82,891.761,1027,903.3,1091,904Zm407,20v85c45.15,1.16,78.86-.49,85-38C1590.39,925.891,1539.6,922.976,1498,924ZM324,966c-16.851,6.949-28.668,9.909-34,28-10.053,34.11,17.864,62.98,51,54C383.8,1036.41,379.742,964.565,324,966Z"/>
</svg>
